<?xml version="1.0" encoding="utf-8"?><svg xmlns="http://www.w3.org/2000/svg" xmlns:xlink="http://www.w3.org/1999/xlink"><symbol viewBox="0 0 284.935 284.936" id="angleLeft" xmlns="http://www.w3.org/2000/svg"><path d="M110.488 142.468L222.694 30.264c1.902-1.903 2.854-4.093 2.854-6.567s-.951-4.664-2.854-6.563L208.417 2.857C206.513.955 204.324 0 201.856 0c-2.475 0-4.664.955-6.567 2.857L62.24 135.9c-1.903 1.903-2.852 4.093-2.852 6.567 0 2.475.949 4.664 2.852 6.567l133.042 133.043c1.906 1.906 4.097 2.857 6.571 2.857 2.471 0 4.66-.951 6.563-2.857l14.277-14.267c1.902-1.903 2.851-4.094 2.851-6.57 0-2.472-.948-4.661-2.851-6.564L110.488 142.468z"/></symbol><symbol viewBox="0 0 284.935 284.936" id="angleRight" xmlns="http://www.w3.org/2000/svg"><path d="M222.701 135.9L89.652 2.857C87.748.955 85.557 0 83.084 0c-2.474 0-4.664.955-6.567 2.857L62.244 17.133c-1.906 1.903-2.855 4.089-2.855 6.567 0 2.478.949 4.664 2.855 6.567l112.204 112.204L62.244 254.677c-1.906 1.903-2.855 4.093-2.855 6.564 0 2.477.949 4.667 2.855 6.57l14.274 14.271c1.903 1.905 4.093 2.854 6.567 2.854 2.473 0 4.663-.951 6.567-2.854l133.042-133.044c1.902-1.902 2.854-4.093 2.854-6.567s-.945-4.664-2.847-6.571z"/></symbol><symbol viewBox="0 0 82.081 60" id="delivery-truck" xmlns="http://www.w3.org/2000/svg"><defs><style>.ca{fill:#ff9f0f}</style></defs><path class="ca" d="M66.45 19.183h-5.167L62.84 1.306V1.198a1.2 1.2 0 0 0-.725-1.1l-.011-.005a1.353 1.353 0 0 0-.082-.03l-.031-.011-.069-.018-.049-.012-.062-.01-.059-.008H37.034a1.2 1.2 0 1 0 0 2.4h23.3l-2.397 27.475v.006l-.6 6.932H15.553l.7-7.214h7.955a1.2 1.2 0 1 0 0-2.4h-7.723l1.476-15.229h12.661a1.2 1.2 0 1 0 0-2.4H18.194l.694-7.16h13.337a1.2 1.2 0 1 0 0-2.4h-14.43a1.2 1.2 0 0 0-1.173.949v.012c-.006.03-.01.061-.014.091v.035l-.821 8.478H1.2a1.2 1.2 0 1 0 0 2.4h14.345l-1.476 15.22H9.78a1.2 1.2 0 1 0 0 2.4h4.057l-.8 8.292L11.79 50.72v.246c0 .031.008.062.014.092v.027c0 .009.011.045.017.068l.012.048v.013a1.2 1.2 0 0 0 .286.471l.007.007.04.037a1.192 1.192 0 0 0 .279.191.754.754 0 0 0 .064.031l.02.007a.91.91 0 0 0 .092.033h.008c.036.011.072.02.108.027h.014c.035.007.07.012.106.016q.059.006.117.006h5.354a9.152 9.152 0 0 0 18.146 0h19.3a9.152 9.152 0 0 0 18.147 0h5.356c.04 0 .08 0 .119-.006h.021c.031 0 .062-.008.093-.014l.039-.009.07-.018.046-.015.059-.022.049-.021.052-.025.048-.026.049-.03.045-.03.048-.036.039-.032.048-.043.033-.032a.792.792 0 0 0 .048-.053l.025-.029c.018-.022.034-.044.05-.067l.017-.023a.916.916 0 0 0 .055-.091v-.006c.018-.033.035-.067.05-.1 0-.01.007-.021.011-.031l.028-.076c.009-.026.009-.034.014-.051a.75.75 0 0 0 .025-.115l.008-.049c.051-.409.993-7.962 1.413-12.847v-.014c.121-1.408.2-2.594.2-3.32A15.648 15.648 0 0 0 66.45 19.183zm-5.377 2.405h4.919l-.628 7.214h-4.919zM27.415 57.595a6.75 6.75 0 1 1 6.75-6.75 6.758 6.758 0 0 1-6.75 6.75zm37.432 0a6.75 6.75 0 1 1 6.75-6.75 6.757 6.757 0 0 1-6.75 6.75zm13.365-7.953h-4.291a9.152 9.152 0 0 0-18.147 0H36.488a9.152 9.152 0 0 0-18.147 0h-4.03l1.01-10.421h43.116a1.177 1.177 0 0 0 .12-.006h.022c.031 0 .063-.008.093-.014l.039-.01.072-.018.047-.016.06-.022.049-.022.053-.025.049-.027.049-.03.045-.031.047-.035.041-.034.045-.041.036-.036.042-.047.032-.038a.99.99 0 0 0 .038-.052l.028-.04q.018-.027.034-.056c.008-.014.017-.028.024-.043l.028-.058.021-.047c.007-.016.014-.038.021-.058l.017-.052.014-.057c.004-.019.01-.038.013-.057l.009-.057a.972.972 0 0 0 .008-.06v-.008l.6-6.918h6.217c3.684 0 5.345 1.909 7.1 3.93 1.451 1.667 3.072 3.528 5.826 3.982-.346 3.697-.911 8.445-1.164 10.524zm1.374-12.935c-1.787-.364-2.886-1.62-4.218-3.15-1.665-1.913-3.7-4.248-7.6-4.683l.622-7.142a13.246 13.246 0 0 1 11.283 13.082c.003.451-.03 1.105-.087 1.893z"/><path class="ca" d="M27.415 46.436a4.409 4.409 0 1 0 4.409 4.409 4.414 4.414 0 0 0-4.409-4.409zm0 6.413a2 2 0 1 1 2-2 2.006 2.006 0 0 1-2 2zm37.427-6.413a4.409 4.409 0 1 0 4.409 4.409 4.414 4.414 0 0 0-4.409-4.409zm0 6.413a2 2 0 1 1 2-2 2.006 2.006 0 0 1-2 2zm-53.46-33.666H5.504a1.2 1.2 0 0 0 0 2.4h5.878a1.2 1.2 0 0 0 0-2.4z"/></symbol><symbol viewBox="0 0 59.235 60" id="fast-food" xmlns="http://www.w3.org/2000/svg"><defs><style>.da{fill:#ff9f0f}</style></defs><path class="da" d="M59.236 41.078v-.949c0-5.511-1.831-9.758-5.441-12.623-3.31-2.627-7.952-3.958-13.8-3.958s-10.488 1.332-13.8 3.958c-3.61 2.865-5.441 7.112-5.441 12.623v.949h2.531v9.431h-2.531v4.746a4.752 4.752 0 0 0 4.746 4.746h28.985a4.752 4.752 0 0 0 4.746-4.746v-4.746H56.7V41.08zm-1.9 11.328v2.848a2.851 2.851 0 0 1-2.848 2.848H25.504a2.851 2.851 0 0 1-2.848-2.848v-2.845h14.366v-1.9H25.188v-1.9h11.338l9.987 7.191 5.593-7.191h2.7v1.9h-2.595v1.9h5.126zm-23.447-5.7h-8.7v-5.632h29.618v5.635H33.889zm15.811 1.9l-3.563 4.581-6.361-4.578zm-26.411-9.43h-.612c.527-11.92 11.008-13.733 17.32-13.733s16.793 1.813 17.32 13.733H23.29z"/><path class="da" d="M50.516 43.171c-.379.357-.55.5-.964.5s-.584-.145-.963-.5a3.029 3.029 0 0 0-4.529 0c-.379.357-.549.5-.963.5s-.584-.145-.963-.5a3.028 3.028 0 0 0-4.529 0c-.379.357-.549.5-.963.5s-.584-.145-.963-.5a3.028 3.028 0 0 0-4.528 0c-.379.357-.549.5-.963.5s-.584-.145-.963-.5a3.048 3.048 0 0 0-2.264-1.018v1.9c.414 0 .584.145.963.5a3.028 3.028 0 0 0 4.528 0c.379-.357.549-.5.963-.5s.584.145.963.5a3.028 3.028 0 0 0 4.529 0c.379-.357.549-.5.963-.5s.584.145.963.5a3.028 3.028 0 0 0 4.529 0c.379-.357.549-.5.963-.5s.584.145.963.5a3.029 3.029 0 0 0 4.529 0c.379-.357.549-.5.963-.5v-1.9a3.049 3.049 0 0 0-2.264 1.018zm-7.609-15.447h1.899v1.899h-1.899zm-7.594 0h1.899v1.899h-1.899zm3.797 1.899h1.899v1.899H39.11z"/><path class="da" d="M18.796 13.928V5.1l9.06-3.316L27.203 0 16.897 3.772v10.156H0v8.227h2.753L6.737 60h13.008v-1.9h-11.3L4.662 22.155h30.461v-8.227H18.796zm14.429 6.329H1.899v-4.43h31.326v4.43z"/><path class="da" d="M7.027 24.823l1.892-.148.149 1.892-1.893.148zm.299 3.784l1.892-.148.149 1.892-1.893.148zm.296 3.786l1.892-.148.149 1.892-1.893.148z"/></symbol><symbol viewBox="0 0 26.333 34" id="hot" xmlns="http://www.w3.org/2000/svg"><defs><style>.ea{fill:#ff9f0f}</style></defs><path class="ea" d="M3.103 29.105c-.272-.382-.545-.688-.681-.918a14.325 14.325 0 0 1-2.316-5.278v-.153C-.78 15.643 4.193 8.529 5.079 8.988c.136.076.068.229.272 3.289.136 2.371.2 2.83.477 2.907.613.306 1.839-1.53 2.521-2.83a13.712 13.712 0 0 0 1.09-2.983c1.226-5.354.068-8.949.954-9.332.953-.459 3.951 3.212 5.177 7.112a21.093 21.093 0 0 0 1.839 4.054c.817 1.453 1.362 2.142 1.976 2.142a1.727 1.727 0 0 0 1.226-.841c1.567-2.295-1.294-7.19-.886-7.5.477-.306 6.472 5.125 6.608 13 .068 8.108-5.927 14.074-6.267 13.921-.136-.076.2-.841.545-2.677a17.385 17.385 0 0 0 .136-2.142 13.251 13.251 0 0 0-.545-3.366 13.337 13.337 0 0 0-1.431-3.671 11.268 11.268 0 0 0-1.431-1.912c-.477-.535-2.657-2.983-3.338-2.524-.341.229-.068.994.068 3.136 0 .688.2 3.748-.409 3.9-.272.076-.477-.688-1.567-1.683a3.029 3.029 0 0 0-1.5-.841 2.042 2.042 0 0 0-1.226.229c-.272.153-.749.535-1.158 1.989a11.73 11.73 0 0 0-.2 3.748 42.286 42.286 0 0 0 .409 4.819c.136 1.147.477 3.06.477 3.06-2.452-1.836-3.066-2.371-4.36-3.442-.002-.068-1.024-.91-1.433-1.445z"/></symbol><symbol viewBox="0 0 58.325 60" id="like" xmlns="http://www.w3.org/2000/svg"><defs><style>.fa{fill:#ff9f0f}</style></defs><path class="fa" d="M56.575 40.79a7.453 7.453 0 0 0 1.744-4.981 7.653 7.653 0 0 0-1.631-4.316 6.706 6.706 0 0 0-1.593-7.716c-1.995-1.819-5.383-2.635-10.075-2.409a39.376 39.376 0 0 0-6.173.79h-.013c-.627.113-1.292.251-1.97.4-.05-.8.088-2.8 1.568-7.29 1.756-5.343 1.656-9.434-.327-12.168A7.976 7.976 0 0 0 31.719 0a3.151 3.151 0 0 0-2.422 1.1c-1.393 1.619-1.23 4.6-1.054 5.985-1.656 4.442-6.3 15.332-10.226 18.356a1.343 1.343 0 0 0-.2.176 13.479 13.479 0 0 0-2.459 3.689 5.178 5.178 0 0 0-2.484-.627H5.22A5.224 5.224 0 0 0 0 33.899v20.392a5.224 5.224 0 0 0 5.22 5.22h7.654a5.209 5.209 0 0 0 3.011-.954l2.949.351a126.326 126.326 0 0 0 16.725.916c1.493.113 2.9.176 4.2.176a28.152 28.152 0 0 0 5.834-.527c3.839-.816 6.462-2.447 7.792-4.843a7.68 7.68 0 0 0 .853-4.806 8 8 0 0 0 2.848-6.512 8.476 8.476 0 0 0-.511-2.522zM5.22 56.123a1.834 1.834 0 0 1-1.832-1.832V33.89a1.834 1.834 0 0 1 1.832-1.832h7.654a1.834 1.834 0 0 1 1.831 1.832v20.389a1.834 1.834 0 0 1-1.832 1.832H5.22zm48.143-16.8a1.686 1.686 0 0 0-.226 2.045 5.22 5.22 0 0 1 .577 2.1 5.021 5.021 0 0 1-2.359 4.332 1.71 1.71 0 0 0-.577 1.932 4.431 4.431 0 0 1-.339 3.237c-.841 1.506-2.71 2.585-5.546 3.187a33.055 33.055 0 0 1-9.147.276h-.176a123.849 123.849 0 0 1-16.311-.891h-.013L17.98 55.4a5.316 5.316 0 0 0 .113-1.1V33.89a5.308 5.308 0 0 0-.238-1.556 10.487 10.487 0 0 1 2.334-4.3c5.636-4.471 11.136-19.54 11.379-20.192A1.589 1.589 0 0 0 31.644 7a7.841 7.841 0 0 1 .163-3.639 4.5 4.5 0 0 1 3.538 1.695c1.28 1.769 1.23 4.931-.151 9.122-2.108 6.386-2.284 9.749-.615 11.23a2.735 2.735 0 0 0 2.735.489 35.161 35.161 0 0 1 2.183-.439l.163-.038c3.852-.841 10.753-1.355 13.149.828 2.033 1.857.59 4.316.427 4.58a1.678 1.678 0 0 0 .3 2.183 4.753 4.753 0 0 1 1.393 2.923 4.659 4.659 0 0 1-1.566 3.388z"/></symbol><symbol id="logo" viewBox="0 0 194.2 53.4" xmlns="http://www.w3.org/2000/svg"><style>.gst0,.gst2{stroke-miterlimit:10;stroke-width:.5;fill:#ffa400;stroke:#ffa400}.gst2{fill:none;stroke-width:1.5}.gst3{fill:#ffa400}.gst4{font-family:'VeganStylePersonalUse'}.gst5{font-size:20px}.gst6{font-family:'ArialMT'}</style><path class="gst0" d="M30.7 10.5c3.8-1.6 9.2-3.9 16.8-5.9C55.4 2.4 64.8-.1 77.1.7c3.8.2 11.1.7 19.7 3.9 2.7 1 7.4 3.3 16.8 7.9 6.4 3.1 9.1 4.6 13.8 5.9 4 1.1 7 1.5 10.9 2 .8.1 1.5.2 2.2.2 2.1.2 3.7.3 4.3.3 9.4.5 14.8.8 19.2 1.4 2.9.4 8.8 1.2 15.8 3.9 8.2 3.2 14 7.6 13.8 7.9-.2.4-8.5-6-21.7-8.9-5.6-1.2-10.9-1.5-18.8-2 0 0-8.4-.5-17-1.6-.5-.1-1.5-.2-2.7-.4-4-.7-6.9-1.7-7.9-2-3.3-1.1-4.9-2-10.9-4.9-7.2-3.6-10.9-5.4-14.8-6.9-1.6-.6-4.9-1.9-8.9-3-14.2-3.8-26-2.3-28.6-2-4 .6-6.9 1.4-12.8 3-9.4 2.6-16.2 5.3-17.8 5.9-4 1.6-7.6 3.4-14.8 6.9-8.7 4.3-11.8 6-11.8 5.9-.2 0 10.6-7.3 25.6-13.6z"/><path class="gst0" d="M125.4 20.4c-.1-.5-12.8 1.7-32.6 2-9.8.1-8.2-.4-38.5-1 0 0-16.3-.3-35.9 4.4-.4.1-1.6.4-1.6.5.1.4 10.2-1.1 18.8-2 11.1-1.1 19.1-1 29.6-1 19.3.1 19.3 1.5 31.6 1 15.9-.6 28.7-3.5 28.6-3.9z"/><path class="gst0" d="M114.5 20.4c.1-.1-5.3-5.3-12.2-8.9-20.2-10.6-43.8-2.9-52.5 0-11.3 3.7-19.7 8.8-19.7 8.9 0 .1 8.2-4.3 19.7-7.9 9.7-3.1 19.3-6 31.9-4.9 3.6.3 11 1 19.7 4.9 7.6 3.4 13.1 8 13.1 7.9zM3 26.4c.3.2-1.8 3.1-1 4 .4.5 2 0 5-1 1.3-.4 2.4-.8 4-1 .9-.1 1.9-.2 2 0 .1.3-2.3.8-10 3-.6.2-1.5.4-2 0-.7-.7.2-2.8 1-4 .4-.5.9-1.1 1-1z"/><path class="gst2" d="M21 14.4c.3-1.1-3.3-3.3-7-4-2.7-.5-5-.3-5 0-.1.5 4.3.7 5 3 .2.6.1 1.4 0 2-.3 1.9-1.3 2.7-1 3 .4.4 2.3-1.6 6-3 1.4-.5 1.9-.6 2-1z"/><text transform="matrix(1.6443 0 0 1 4.5 49.195)" class="gst3 gst4 gst5">Food</text><text transform="matrix(1.6443 0 0 1 79.15 49.195)" class="gst3 gst6 gst5">-</text><text transform="matrix(1.6443 0 0 1 89.18 49.195)" class="gst3 gst4 gst5">courier</text></symbol><symbol id="menu" viewBox="0 0 35.8 31.2" xmlns="http://www.w3.org/2000/svg"><style>.hst0{fill:#ff9f0f}</style><path class="hst0" d="M17.9 31.2L0 26.9V0l17.9 4.3zm0-26.9L35.8 0v26.9l-17.9 4.3V4.3zM19 29.7l15.7-3.9V1.5L19 5.4v24.3z"/><path class="hst0" d="M31.4 7.3l-9.6 2.4c-.5.1-.8.6-.7 1.1.1.5.6.8 1.1.7L31.9 9c.5-.1.8-.6.7-1.1-.2-.4-.7-.7-1.2-.6zm0 6.2l-9.6 2.4c-.5.1-.8.6-.7 1.1.1.5.6.8 1.1.7l9.6-2.4c.5-.1.8-.6.7-1.1-.1-.5-.6-.8-1.1-.7zm0 6.3l-9.6 2.4c-.5.1-.8.6-.7 1.1.1.5.6.8 1.1.7l9.6-2.4c.5-.1.8-.6.7-1.1-.1-.5-.6-.8-1.1-.7z"/></symbol></svg>